<svg xmlns="http://www.w3.org/2000/svg" viewBox="0 0 640 640" role="img" aria-labelledby="title desc">
  <title id="title">OMO AI Song and Animation Maker</title>
  <desc id="desc">A musical note, play button, and sound waves.</desc>
  <rect width="640" height="640" rx="88" fill="#dff4df"/>
  <circle cx="320" cy="320" r="204" fill="#fffdf6" stroke="#17352c" stroke-width="18"/>
  <path d="M276 233v195c0 37-31 67-70 67s-70-30-70-67 31-67 70-67c13 0 26 4 36 10V213l210-48v190c0 37-31 67-70 67s-70-30-70-67 31-67 70-67c13 0 26 4 36 10V213l-142 33Z" fill="#ff8a4c" stroke="#17352c" stroke-width="16" stroke-linejoin="round"/>
  <path d="m306 274 90 54-90 54v-108Z" fill="#fffdf6" stroke="#17352c" stroke-width="10" stroke-linejoin="round"/>
</svg>
