<svg xmlns="http://www.w3.org/2000/svg" viewBox="0 0 640 640" role="img" aria-labelledby="title desc">
  <title id="title">OMO Phonics Book Maker</title>
  <desc id="desc">An open book with letter tiles and a small sparkle.</desc>
  <rect width="640" height="640" rx="88" fill="#dff4df"/>
  <path d="M126 190c72-22 140-6 194 40v256c-54-46-122-62-194-40V190Z" fill="#fffdf6" stroke="#17352c" stroke-width="18" stroke-linejoin="round"/>
  <path d="M514 190c-72-22-140-6-194 40v256c54-46 122-62 194-40V190Z" fill="#fffdf6" stroke="#17352c" stroke-width="18" stroke-linejoin="round"/>
  <path d="M320 230v256" stroke="#17352c" stroke-width="18" stroke-linecap="round"/>
  <circle cx="222" cy="316" r="48" fill="#ff8a4c"/>
  <text x="222" y="337" text-anchor="middle" font-family="Arial,sans-serif" font-size="58" font-weight="700" fill="#17352c">A</text>
  <path d="m438 98 13 34 34 13-34 13-13 34-13-34-34-13 34-13 13-34Z" fill="#ff8a4c" stroke="#17352c" stroke-width="8" stroke-linejoin="round"/>
</svg>
